<svg xmlns="http://www.w3.org/2000/svg" style="display: none;">
  
  <symbol id="ph-house" viewBox="0 0 256 256">
    <rect width="256" height="256" fill="none"/>
    <path d="M216.7,113.3,136,49.3a15.9,15.9,0,0,0-16,0l-80.7,64a16.1,16.1,0,0,0-8.7,14.5V208a16,16,0,0,0,16,16H209.4a16,16,0,0,0,16-16V127.8A16.1,16.1,0,0,0,216.7,113.3Z" fill="none" stroke="currentColor" stroke-linecap="round" stroke-linejoin="round" stroke-width="16"/>
  </symbol>

  <symbol id="ph-chat" viewBox="0 0 256 256">
    <rect width="256" height="256" fill="none"/>
    <path d="M216,48H40A16,16,0,0,0,24,64V224l42.34-29.64A8,8,0,0,1,72,192H216a16,16,0,0,0,16-16V64A16,16,0,0,0,216,48Z" fill="none" stroke="currentColor" stroke-linecap="round" stroke-linejoin="round" stroke-width="16"/>
  </symbol>

  <symbol id="ph-gear" viewBox="0 0 256 256">
    <rect width="256" height="256" fill="none"/>
    <path d="M216.3,106.2,194,117.6a48.2,48.2,0,0,0-22-22L183.8,73.7a16,16,0,0,0-4.4-22.1l-22.2-22.2a16,16,0,0,0-22.1-4.4L96.4,32a48.2,48.2,0,0,0-22,22L62.9,76.3a16,16,0,0,0-4.4,22.1l22.2,22.2a16,16,0,0,0,22.1,4.4L114.2,114a48.2,48.2,0,0,0,22,22l-11.4,22.3a16,16,0,0,0,4.4,22.1l22.2,22.2a16,16,0,0,0,22.1,4.4L183.8,198a48.2,48.2,0,0,0,22-22l11.4-22.3a16,16,0,0,0-4.4-22.1l-22.2-22.2a16,16,0,0,0-22.1-4.4L159.8,142a48.2,48.2,0,0,0-22-22l11.4-22.3a16,16,0,0,0,4.4-22.1l22.2-22.2a16,16,0,0,0,22.1-4.4Z" fill="none" stroke="currentColor" stroke-linecap="round" stroke-linejoin="round" stroke-width="16"/>
    <circle cx="128" cy="128" r="40" fill="none" stroke="currentColor" stroke-linecap="round" stroke-linejoin="round" stroke-width="16"/>
  </symbol>

  <symbol id="ph-user" viewBox="0 0 256 256">
    <rect width="256" height="256" fill="none"/>
    <circle cx="128" cy="96" r="64" fill="none" stroke="currentColor" stroke-miterlimit="10" stroke-width="16"/>
    <path d="M31,216a112,112,0,0,1,194,0" fill="none" stroke="currentColor" stroke-linecap="round" stroke-linejoin="round" stroke-width="16"/>
  </symbol>

  <symbol id="ph-check-square" viewBox="0 0 256 256">
    <rect width="256" height="256" fill="none"/>
    <polyline points="172 104 116 160 84 128" fill="none" stroke="currentColor" stroke-linecap="round" stroke-linejoin="round" stroke-width="16"/>
    <rect x="40" y="40" width="176" height="176" rx="8" fill="none" stroke="currentColor" stroke-linecap="round" stroke-linejoin="round" stroke-width="16"/>
  </symbol>

  <symbol id="ph-moon" viewBox="0 0 256 256">
    <rect width="256" height="256" fill="none"/>
    <path d="M216.7,152.6A95.9,95.9,0,0,1,103.4,40.3,96,96,0,0,0,216.7,152.6Z" fill="none" stroke="currentColor" stroke-linecap="round" stroke-linejoin="round" stroke-width="16"/>
  </symbol>

  <symbol id="ph-smiley-plus" viewBox="0 0 256 256">
    <rect width="256" height="256" fill="none"/>
    <circle cx="128" cy="128" r="96" fill="none" stroke="currentColor" stroke-linecap="round" stroke-linejoin="round" stroke-width="16"/>
    <line x1="92" y1="148" x2="164" y2="148" stroke="currentColor" stroke-linecap="round" stroke-linejoin="round" stroke-width="16"/>
    <line x1="128" y1="92" x2="128" y2="124" stroke="currentColor" stroke-linecap="round" stroke-linejoin="round" stroke-width="16"/>
    <line x1="112" y1="108" x2="144" y2="108" stroke="currentColor" stroke-linecap="round" stroke-linejoin="round" stroke-width="16"/>
  </symbol>

  <symbol id="ph-x" viewBox="0 0 256 256">
    <rect width="256" height="256" fill="none"/>
    <line x1="200" y1="56" x2="56" y2="200" stroke="currentColor" stroke-linecap="round" stroke-linejoin="round" stroke-width="16"/>
    <line x1="200" y1="200" x2="56" y2="56" stroke="currentColor" stroke-linecap="round" stroke-linejoin="round" stroke-width="16"/>
  </symbol>

  <symbol id="ph-paper-plane-tilt" viewBox="0 0 256 256">
    <rect width="256" height="256" fill="none"/>
    <path d="M223.2,95.3,62.6,20.2a16,16,0,0,0-22.1,22.1L64.8,193.5a15.9,15.9,0,0,0,15.1,11.3,15.4,15.4,0,0,0,10.4-3.9l36.8-36.8,48.1,48.1a15.9,15.9,0,0,0,22.6,0l22.6-22.6a15.9,15.9,0,0,0,0-22.6L172.4,128,219.4,81A16,16,0,0,0,223.2,95.3Z" fill="none" stroke="currentColor" stroke-linecap="round" stroke-linejoin="round" stroke-width="16"/>
  </symbol>

  <symbol id="ph-arrow-left" viewBox="0 0 256 256">
    <rect width="256" height="256" fill="none"/>
    <line x1="216" y1="128" x2="40" y2="128" stroke="currentColor" stroke-linecap="round" stroke-linejoin="round" stroke-width="16"/>
    <polyline points="112 56 40 128 112 200" fill="none" stroke="currentColor" stroke-linecap="round" stroke-linejoin="round" stroke-width="16"/>
  </symbol>

  <symbol id="ph-arrow-up" viewBox="0 0 256 256">
    <rect width="256" height="256" fill="none"/>
    <line x1="128" y1="40" x2="128" y2="216" stroke="currentColor" stroke-linecap="round" stroke-linejoin="round" stroke-width="16"/>
    <polyline points="56 112 128 40 200 112" fill="none" stroke="currentColor" stroke-linecap="round" stroke-linejoin="round" stroke-width="16"/>
  </symbol>

  <symbol id="ph-check-circle" viewBox="0 0 256 256">
    <rect width="256" height="256" fill="none"/>
    <polyline points="172 104 116 160 84 128" fill="none" stroke="currentColor" stroke-linecap="round" stroke-linejoin="round" stroke-width="16"/>
    <circle cx="128" cy="128" r="96" fill="none" stroke="currentColor" stroke-linecap="round" stroke-linejoin="round" stroke-width="16"/>
  </symbol>

  <symbol id="ph-dots-three-outline-vertical" viewBox="0 0 256 256">
    <rect width="256" height="256" fill="none"/>
    <circle cx="128" cy="52" r="16" fill="currentColor"/>
    <circle cx="128" cy="128" r="16" fill="currentColor"/>
    <circle cx="128" cy="204" r="16" fill="currentColor"/>
  </symbol>

  <symbol id="ph-lock" viewBox="0 0 256 256">
    <rect width="256" height="256" fill="none"/>
    <rect x="40" y="88" width="176" height="128" rx="8" fill="none" stroke="currentColor" stroke-linecap="round" stroke-linejoin="round" stroke-width="16"/>
    <path d="M92,88V52a36,36,0,0,1,72,0V88" fill="none" stroke="currentColor" stroke-linecap="round" stroke-linejoin="round" stroke-width="16"/>
  </symbol>

  <symbol id="ph-push-pin" viewBox="0 0 256 256">
    <rect width="256" height="256" fill="none"/>
    <path d="M229.66,98.34a8,8,0,0,0,0-11.31L169,26.34a8,8,0,0,0-11.31,0L100.39,83.8S72.64,69.93,43,93.85a8,8,0,0,0-.65,11.91l107.9,107.89a8,8,0,0,0,12-.83c8.39-11.16,21.57-34.09,10.11-57Z" fill="none" stroke="currentColor" stroke-linecap="round" stroke-linejoin="round" stroke-width="16"/>
    <line x1="96.29" y1="159.71" x2="48" y2="208" fill="none" stroke="currentColor" stroke-linecap="round" stroke-linejoin="round" stroke-width="16"/>
  </symbol>

  <symbol id="ph-push-pin-slash" viewBox="0 0 256 256">
    <rect width="256" height="256" fill="none"/>
    <line x1="96.29" y1="159.71" x2="48" y2="208" fill="none" stroke="currentColor" stroke-linecap="round" stroke-linejoin="round" stroke-width="16"/>
    <line x1="48" y1="40" x2="208" y2="216" stroke="currentColor" stroke-linecap="round" stroke-linejoin="round" stroke-width="16"/>
    <path d="M185,143.14l44.65-44.8a8,8,0,0,0,0-11.31L169,26.34a8,8,0,0,0-11.31,0L116.43,67.7" fill="none" stroke="currentColor" stroke-linecap="round" stroke-linejoin="round" stroke-width="16"/>
    <path d="M84.32,80C73.54,79.16,58.53,81.32,43,93.85a8,8,0,0,0-.65,11.91l107.9,107.89a8,8,0,0,0,12-.83c5.21-6.93,12.27-18.39,14.12-31.58" fill="none" stroke="currentColor" stroke-linecap="round" stroke-linejoin="round" stroke-width="16"/>
  </symbol>

  <symbol id="ph-push-pin-fill" viewBox="0 0 256 256">
    <rect width="256" height="256" fill="none"/>
    <path d="M235.32,81.37,174.63,20.69a16,16,0,0,0-22.63,0L98.37,74.49c-10.66-3.34-35-7.37-60.4,13.14a16,16,0,0,0-1.29,23.78L85,159.71,42.34,202.34a8,8,0,0,0,11.32,11.32L96.29,171l48.29,48.29A16,16,0,0,0,155.9,224c.38,0,.75,0,1.13,0a15.93,15.93,0,0,0,11.64-6.33c19.64-26.1,17.75-47.32,13.19-60L235.33,104A16,16,0,0,0,235.32,81.37ZM224,92.69h0l-57.27,57.46a8,8,0,0,0-1.49,9.22c9.46,18.93-1.8,38.59-9.34,48.62L48,100.08c12.08-9.74,23.64-12.31,32.48-12.31A40.13,40.13,0,0,1,96.81,91a8,8,0,0,0,9.25-1.51L163.32,32,224,92.68Z" fill="currentColor"/>
  </symbol>

  <symbol id="ph-bell-slashed" viewBox="0 0 256 256">
    <rect width="256" height="256" fill="none"/>
    <path d="M56.2,56.2A80.7,80.7,0,0,0,56,104c0,44.2-35,81.09-78.6,85.6A15.9,15.9,0,0,0,0,207.9V216a16,16,0,0,0,16,16H209.6l22.8,22.8a8,8,0,0,0,11.3-11.3L67.5,44.9a8,8,0,0,0-11.3,11.3ZM232,104c0-41-32-75-71-75a68.8,68.8,0,0,0-49.4,20.4" fill="none" stroke="currentColor" stroke-linecap="round" stroke-linejoin="round" stroke-width="16"/>
  </symbol>

  <symbol id="ph-arrow-bend-up-left" viewBox="0 0 256 256">
    <rect width="256" height="256" fill="none"/>
    <polyline points="88 216 32 160 88 104" fill="none" stroke="currentColor" stroke-linecap="round" stroke-linejoin="round" stroke-width="16"/>
    <path d="M32,160H152a80,80,0,0,0,80-80V48" fill="none" stroke="currentColor" stroke-linecap="round" stroke-linejoin="round" stroke-width="16"/>
  </symbol>

  <symbol id="ph-pencil-simple" viewBox="0 0 256 256">
    <rect width="256" height="256" fill="none"/>
    <path d="M92.69,216H48a8,8,0,0,1-8-8V163.31a8,8,0,0,1,2.34-5.65L165.66,34.34a8,8,0,0,1,11.31,0L221.66,79a8,8,0,0,1,0,11.31L98.34,213.66A8,8,0,0,1,92.69,216Z" fill="none" stroke="currentColor" stroke-linecap="round" stroke-linejoin="round" stroke-width="16"/>
    <line x1="136" y1="64" x2="192" y2="120" fill="none" stroke="currentColor" stroke-linecap="round" stroke-linejoin="round" stroke-width="16"/>
  </symbol>
</svg>
