<svg xmlns="http://www.w3.org/2000/svg" style="display: none;">
  
  <symbol id="ph-house" viewBox="0 0 256 256">
    <rect width="256" height="256" fill="none"/>
    <path d="M216.7,113.3,136,49.3a15.9,15.9,0,0,0-16,0l-80.7,64a16.1,16.1,0,0,0-8.7,14.5V208a16,16,0,0,0,16,16H209.4a16,16,0,0,0,16-16V127.8A16.1,16.1,0,0,0,216.7,113.3Z" fill="none" stroke="currentColor" stroke-linecap="round" stroke-linejoin="round" stroke-width="16"/>
  </symbol>

  <symbol id="ph-chat" viewBox="0 0 256 256">
    <rect width="256" height="256" fill="none"/>
    <path d="M216,48H40A16,16,0,0,0,24,64V224l42.34-29.64A8,8,0,0,1,72,192H216a16,16,0,0,0,16-16V64A16,16,0,0,0,216,48Z" fill="none" stroke="currentColor" stroke-linecap="round" stroke-linejoin="round" stroke-width="16"/>
  </symbol>

  <symbol id="ph-gear" viewBox="0 0 256 256">
    <rect width="256" height="256" fill="none"/>
    <path d="M216.3,106.2,194,117.6a48.2,48.2,0,0,0-22-22L183.8,73.7a16,16,0,0,0-4.4-22.1l-22.2-22.2a16,16,0,0,0-22.1-4.4L96.4,32a48.2,48.2,0,0,0-22,22L62.9,76.3a16,16,0,0,0-4.4,22.1l22.2,22.2a16,16,0,0,0,22.1,4.4L114.2,114a48.2,48.2,0,0,0,22,22l-11.4,22.3a16,16,0,0,0,4.4,22.1l22.2,22.2a16,16,0,0,0,22.1,4.4L183.8,198a48.2,48.2,0,0,0,22-22l11.4-22.3a16,16,0,0,0-4.4-22.1l-22.2-22.2a16,16,0,0,0-22.1-4.4L159.8,142a48.2,48.2,0,0,0-22-22l11.4-22.3a16,16,0,0,0,4.4-22.1l22.2-22.2a16,16,0,0,0,22.1-4.4Z" fill="none" stroke="currentColor" stroke-linecap="round" stroke-linejoin="round" stroke-width="16"/>
    <circle cx="128" cy="128" r="40" fill="none" stroke="currentColor" stroke-linecap="round" stroke-linejoin="round" stroke-width="16"/>
  </symbol>

  <symbol id="ph-gear-fill" viewBox="0 0 256 256">
    <path d="M128,82a46,46,0,1,0,46,46A46.06,46.06,0,0,0,128,82Zm0,80a34,34,0,1,1,34-34A34,34,0,0,1,128,162ZM214,130.84c.06-1.89.06-3.79,0-5.68L229.33,106a6,6,0,0,0,1.11-5.29A105.34,105.34,0,0,0,219.76,74.9a6,6,0,0,0-4.53-3l-24.45-2.71q-1.93-2.07-4-4l-2.72-24.46a6,6,0,0,0-3-4.53,105.65,105.65,0,0,0-25.77-10.66A6,6,0,0,0,150,26.68l-19.2,15.37c-1.89-.06-3.79-.06-5.68,0L106,26.67a6,6,0,0,0-5.29-1.11A105.34,105.34,0,0,0,74.9,36.24a6,6,0,0,0-3,4.53L69.23,65.22q-2.07,1.94-4,4L40.76,72a6,6,0,0,0-4.53,3,105.65,105.65,0,0,0-10.66,25.77A6,6,0,0,0,26.68,106l15.37,19.2c-.06,1.89-.06,3.79,0,5.68L26.67,150.05a6,6,0,0,0-1.11,5.29A105.34,105.34,0,0,0,36.24,181.1a6,6,0,0,0,4.53,3l24.45,2.71q1.94,2.07,4,4L72,215.24a6,6,0,0,0,3,4.53,105.65,105.65,0,0,0,25.77,10.66,6,6,0,0,0,5.29-1.11L125.16,214c1.89.06,3.79.06,5.68,0l19.21,15.38a6,6,0,0,0,3.75,1.31,6.2,6.2,0,0,0,1.54-.2,105.34,105.34,0,0,0,25.76-10.68,6,6,0,0,0,3-4.53l2.71-24.45q2.07-1.93,4-4l24.46-2.72a6,6,0,0,0,4.53-3,105.49,105.49,0,0,0,10.66-25.77,6,6,0,0,0-1.11-5.29Zm-3.1,41.63-23.64,2.63a6,6,0,0,0-3.82,2,75.14,75.14,0,0,1-6.31,6.31,6,6,0,0,0-2,3.82l-2.63,23.63A94.28,94.28,0,0,1,155.14,218l-18.57-14.86a6,6,0,0,0-3.75-1.31h-.36a78.07,78.07,0,0,1-8.92,0,6,6,0,0,0-4.11,1.3L100.87,218a94.13,94.13,0,0,1-17.34-7.17L80.9,187.21a6,6,0,0,0-2-3.82,75.14,75.14,0,0,1-6.31-6.31,6,6,0,0,0-3.82-2l-23.63-2.63A94.28,94.28,0,0,1,38,155.14l14.86-18.57a6,6,0,0,0,1.3-4.11,78.07,78.07,0,0,1,0-8.92,6,6,0,0,0-1.3-4.11L38,100.87a94.13,94.13,0,0,1,7.17-17.34L68.79,80.9a6,6,0,0,0,3.82-2,75.14,75.14,0,0,1,6.31-6.31,6,6,0,0,0,2-3.82l2.63-23.63A94.28,94.28,0,0,1,100.86,38l18.57,14.86a6,6,0,0,0,4.11,1.3,78.07,78.07,0,0,1,8.92,0,6,6,0,0,0,4.11-1.3L155.13,38a94.13,94.13,0,0,1,17.34,7.17l2.63,23.64a6,6,0,0,0,2,3.82,75.14,75.14,0,0,1,6.31,6.31,6,6,0,0,0,3.82,2l23.63,2.63A94.28,94.28,0,0,1,218,100.86l-14.86,18.57a6,6,0,0,0-1.3,4.11,78.07,78.07,0,0,1,0,8.92,6,6,0,0,0,1.3,4.11L218,155.13A94.13,94.13,0,0,1,210.85,172.47Z" fill="currentColor"/>
  </symbol>

  <symbol id="ph-user" viewBox="0 0 256 256">
    <rect width="256" height="256" fill="none"/>
    <circle cx="128" cy="96" r="64" fill="none" stroke="currentColor" stroke-miterlimit="10" stroke-width="16"/>
    <path d="M31,216a112,112,0,0,1,194,0" fill="none" stroke="currentColor" stroke-linecap="round" stroke-linejoin="round" stroke-width="16"/>
  </symbol>

  <symbol id="ph-check-square" viewBox="0 0 256 256">
    <rect width="256" height="256" fill="none"/>
    <polyline points="172 104 116 160 84 128" fill="none" stroke="currentColor" stroke-linecap="round" stroke-linejoin="round" stroke-width="16"/>
    <rect x="40" y="40" width="176" height="176" rx="8" fill="none" stroke="currentColor" stroke-linecap="round" stroke-linejoin="round" stroke-width="16"/>
  </symbol>

  <symbol id="ph-moon" viewBox="0 0 256 256">
    <rect width="256" height="256" fill="none"/>
    <path d="M216.7,152.6A95.9,95.9,0,0,1,103.4,40.3,96,96,0,0,0,216.7,152.6Z" fill="none" stroke="currentColor" stroke-linecap="round" stroke-linejoin="round" stroke-width="16"/>
  </symbol>

  <symbol id="ph-smiley-plus" viewBox="0 0 256 256">
    <rect width="256" height="256" fill="none"/>
    <circle cx="128" cy="128" r="96" fill="none" stroke="currentColor" stroke-linecap="round" stroke-linejoin="round" stroke-width="16"/>
    <line x1="92" y1="148" x2="164" y2="148" stroke="currentColor" stroke-linecap="round" stroke-linejoin="round" stroke-width="16"/>
    <line x1="128" y1="92" x2="128" y2="124" stroke="currentColor" stroke-linecap="round" stroke-linejoin="round" stroke-width="16"/>
    <line x1="112" y1="108" x2="144" y2="108" stroke="currentColor" stroke-linecap="round" stroke-linejoin="round" stroke-width="16"/>
  </symbol>

  <symbol id="ph-x" viewBox="0 0 256 256">
    <rect width="256" height="256" fill="none"/>
    <line x1="200" y1="56" x2="56" y2="200" stroke="currentColor" stroke-linecap="round" stroke-linejoin="round" stroke-width="16"/>
    <line x1="200" y1="200" x2="56" y2="56" stroke="currentColor" stroke-linecap="round" stroke-linejoin="round" stroke-width="16"/>
  </symbol>

  <symbol id="ph-paper-plane-tilt" viewBox="0 0 256 256">
    <rect width="256" height="256" fill="none"/>
    <path d="M223.2,95.3,62.6,20.2a16,16,0,0,0-22.1,22.1L64.8,193.5a15.9,15.9,0,0,0,15.1,11.3,15.4,15.4,0,0,0,10.4-3.9l36.8-36.8,48.1,48.1a15.9,15.9,0,0,0,22.6,0l22.6-22.6a15.9,15.9,0,0,0,0-22.6L172.4,128,219.4,81A16,16,0,0,0,223.2,95.3Z" fill="none" stroke="currentColor" stroke-linecap="round" stroke-linejoin="round" stroke-width="16"/>
  </symbol>

  <symbol id="ph-arrow-left" viewBox="0 0 256 256">
    <rect width="256" height="256" fill="none"/>
    <line x1="216" y1="128" x2="40" y2="128" stroke="currentColor" stroke-linecap="round" stroke-linejoin="round" stroke-width="16"/>
    <polyline points="112 56 40 128 112 200" fill="none" stroke="currentColor" stroke-linecap="round" stroke-linejoin="round" stroke-width="16"/>
  </symbol>

  <symbol id="ph-arrow-up" viewBox="0 0 256 256">
    <rect width="256" height="256" fill="none"/>
    <line x1="128" y1="40" x2="128" y2="216" stroke="currentColor" stroke-linecap="round" stroke-linejoin="round" stroke-width="16"/>
    <polyline points="56 112 128 40 200 112" fill="none" stroke="currentColor" stroke-linecap="round" stroke-linejoin="round" stroke-width="16"/>
  </symbol>

  <symbol id="ph-check-circle" viewBox="0 0 256 256">
    <rect width="256" height="256" fill="none"/>
    <polyline points="172 104 116 160 84 128" fill="none" stroke="currentColor" stroke-linecap="round" stroke-linejoin="round" stroke-width="16"/>
    <circle cx="128" cy="128" r="96" fill="none" stroke="currentColor" stroke-linecap="round" stroke-linejoin="round" stroke-width="16"/>
  </symbol>

  <symbol id="ph-dots-three-outline-vertical" viewBox="0 0 256 256">
    <rect width="256" height="256" fill="none"/>
    <circle cx="128" cy="52" r="16" fill="currentColor"/>
    <circle cx="128" cy="128" r="16" fill="currentColor"/>
    <circle cx="128" cy="204" r="16" fill="currentColor"/>
  </symbol>

  <symbol id="ph-lock" viewBox="0 0 256 256">
    <rect width="256" height="256" fill="none"/>
    <rect x="40" y="88" width="176" height="128" rx="8" fill="none" stroke="currentColor" stroke-linecap="round" stroke-linejoin="round" stroke-width="16"/>
    <path d="M92,88V52a36,36,0,0,1,72,0V88" fill="none" stroke="currentColor" stroke-linecap="round" stroke-linejoin="round" stroke-width="16"/>
  </symbol>

  <symbol id="ph-push-pin" viewBox="0 0 256 256">
    <rect width="256" height="256" fill="none"/>
    <path d="M229.66,98.34a8,8,0,0,0,0-11.31L169,26.34a8,8,0,0,0-11.31,0L100.39,83.8S72.64,69.93,43,93.85a8,8,0,0,0-.65,11.91l107.9,107.89a8,8,0,0,0,12-.83c8.39-11.16,21.57-34.09,10.11-57Z" fill="none" stroke="currentColor" stroke-linecap="round" stroke-linejoin="round" stroke-width="16"/>
    <line x1="96.29" y1="159.71" x2="48" y2="208" fill="none" stroke="currentColor" stroke-linecap="round" stroke-linejoin="round" stroke-width="16"/>
  </symbol>

  <symbol id="ph-push-pin-slash" viewBox="0 0 256 256">
    <rect width="256" height="256" fill="none"/>
    <line x1="96.29" y1="159.71" x2="48" y2="208" fill="none" stroke="currentColor" stroke-linecap="round" stroke-linejoin="round" stroke-width="16"/>
    <line x1="48" y1="40" x2="208" y2="216" stroke="currentColor" stroke-linecap="round" stroke-linejoin="round" stroke-width="16"/>
    <path d="M185,143.14l44.65-44.8a8,8,0,0,0,0-11.31L169,26.34a8,8,0,0,0-11.31,0L116.43,67.7" fill="none" stroke="currentColor" stroke-linecap="round" stroke-linejoin="round" stroke-width="16"/>
    <path d="M84.32,80C73.54,79.16,58.53,81.32,43,93.85a8,8,0,0,0-.65,11.91l107.9,107.89a8,8,0,0,0,12-.83c5.21-6.93,12.27-18.39,14.12-31.58" fill="none" stroke="currentColor" stroke-linecap="round" stroke-linejoin="round" stroke-width="16"/>
  </symbol>

  <symbol id="ph-push-pin-fill" viewBox="0 0 256 256">
    <rect width="256" height="256" fill="none"/>
    <path d="M235.32,81.37,174.63,20.69a16,16,0,0,0-22.63,0L98.37,74.49c-10.66-3.34-35-7.37-60.4,13.14a16,16,0,0,0-1.29,23.78L85,159.71,42.34,202.34a8,8,0,0,0,11.32,11.32L96.29,171l48.29,48.29A16,16,0,0,0,155.9,224c.38,0,.75,0,1.13,0a15.93,15.93,0,0,0,11.64-6.33c19.64-26.1,17.75-47.32,13.19-60L235.33,104A16,16,0,0,0,235.32,81.37ZM224,92.69h0l-57.27,57.46a8,8,0,0,0-1.49,9.22c9.46,18.93-1.8,38.59-9.34,48.62L48,100.08c12.08-9.74,23.64-12.31,32.48-12.31A40.13,40.13,0,0,1,96.81,91a8,8,0,0,0,9.25-1.51L163.32,32,224,92.68Z" fill="currentColor"/>
  </symbol>

  <symbol id="ph-bell-slashed" viewBox="0 0 256 256">
    <rect width="256" height="256" fill="none"/>
    <path d="M56.2,56.2A80.7,80.7,0,0,0,56,104c0,44.2-35,81.09-78.6,85.6A15.9,15.9,0,0,0,0,207.9V216a16,16,0,0,0,16,16H209.6l22.8,22.8a8,8,0,0,0,11.3-11.3L67.5,44.9a8,8,0,0,0-11.3,11.3ZM232,104c0-41-32-75-71-75a68.8,68.8,0,0,0-49.4,20.4" fill="none" stroke="currentColor" stroke-linecap="round" stroke-linejoin="round" stroke-width="16"/>
  </symbol>

  <symbol id="ph-arrow-bend-up-left" viewBox="0 0 256 256">
    <rect width="256" height="256" fill="none"/>
    <polyline points="88 216 32 160 88 104" fill="none" stroke="currentColor" stroke-linecap="round" stroke-linejoin="round" stroke-width="16"/>
    <path d="M32,160H152a80,80,0,0,0,80-80V48" fill="none" stroke="currentColor" stroke-linecap="round" stroke-linejoin="round" stroke-width="16"/>
  </symbol>

  <symbol id="ph-pencil-simple" viewBox="0 0 256 256">
    <rect width="256" height="256" fill="none"/>
    <path d="M92.69,216H48a8,8,0,0,1-8-8V163.31a8,8,0,0,1,2.34-5.65L165.66,34.34a8,8,0,0,1,11.31,0L221.66,79a8,8,0,0,1,0,11.31L98.34,213.66A8,8,0,0,1,92.69,216Z" fill="none" stroke="currentColor" stroke-linecap="round" stroke-linejoin="round" stroke-width="16"/>
    <line x1="136" y1="64" x2="192" y2="120" fill="none" stroke="currentColor" stroke-linecap="round" stroke-linejoin="round" stroke-width="16"/>
  </symbol>

  <symbol id="ph-camera" viewBox="0 0 256 256">
    <rect width="256" height="256" fill="none"/>
    <path d="M160,216H56a16,16,0,0,1-16-16V88A16,16,0,0,1,56,72H200a16,16,0,0,1,16,16v80a16,16,0,0,1-16,16H184" fill="none" stroke="currentColor" stroke-linecap="round" stroke-linejoin="round" stroke-width="16"/>
    <path d="M96,72V48a16,16,0,0,1,16-16h32a16,16,0,0,1,16,16V72" fill="none" stroke="currentColor" stroke-linecap="round" stroke-linejoin="round" stroke-width="16"/>
    <circle cx="128" cy="144" r="32" fill="none" stroke="currentColor" stroke-linecap="round" stroke-linejoin="round" stroke-width="16"/>
    <path d="M184,88l16-16a8,8,0,0,1,11.3,0l11.4,11.3a8,8,0,0,1,0,11.4L208,112" fill="none" stroke="currentColor" stroke-linecap="round" stroke-linejoin="round" stroke-width="16"/>
  </symbol>

  <symbol id="ph-list-checks-new" viewBox="0 0 256 256">
    <path d="M222,128a6,6,0,0,1-6,6H128a6,6,0,0,1,0-12h88A6,6,0,0,1,222,128ZM128,70h88a6,6,0,0,0,0-12H128a6,6,0,0,0,0,12Zm88,116H128a6,6,0,0,0,0,12h88a6,6,0,0,0,0-12ZM83.76,43.76,56,71.51,44.24,59.76a6,6,0,0,0-8.48,8.48l16,16a6,6,0,0,0,8.48,0l32-32a6,6,0,0,0-8.48-8.48Zm0,64L56,135.51,44.24,123.76a6,6,0,1,0-8.48,8.48l16,16a6,6,0,0,0,8.48,0l32-32a6,6,0,0,0-8.48-8.48Zm0,64L56,199.51,44.24,187.76a6,6,0,0,0-8.48,8.48l16,16a6,6,0,0,0,8.48,0l32-32a6,6,0,0,0-8.48-8.48Z" fill="currentColor"></path>
  </symbol>

  <symbol id="ph-square" viewBox="0 0 256 256">
    <rect width="256" height="256" fill="none"/>
    <rect x="40" y="40" width="176" height="176" rx="8" fill="none" stroke="currentColor" stroke-linecap="round" stroke-linejoin="round" stroke-width="16"/>
  </symbol>

  <symbol id="ph-check-square-fill" viewBox="0 0 256 256">
    <rect width="256" height="256" fill="none"/>
    <path d="M224,48V208a16,16,0,0,1-16,16H48a16,16,0,0,1-16-16V48A16,16,0,0,1,48,32H208A16,16,0,0,1,224,48ZM174.1,101.9l-56,56a8.2,8.2,0,0,1-11.4,0l-24-24a8.1,8.1,0,0,1,11.4-11.4L112,140.7l50.1-50.2a8.1,8.1,0,0,1,11.4,11.4Z" fill="currentColor"/>
  </symbol>

  <symbol id="ph-check" viewBox="0 0 256 256">
    <rect width="256" height="256" fill="none"/>
    <polyline points="216 72 104 184 48 128" fill="none" stroke="currentColor" stroke-linecap="round" stroke-linejoin="round" stroke-width="16"/>
  </symbol>

  <symbol id="ph-checks" viewBox="0 0 256 256">
    <rect width="256" height="256" fill="none"/>
    <polyline points="216 72 104 184 48 128" fill="none" stroke="currentColor" stroke-linecap="round" stroke-linejoin="round" stroke-width="16"/>
    <polyline points="160 72 88 144" fill="none" stroke="currentColor" stroke-linecap="round" stroke-linejoin="round" stroke-width="16"/>
  </symbol>

</svg>
